<svg xmlns="http://www.w3.org/2000/svg" xmlns:xlink="http://www.w3.org/1999/xlink" width="180" height="68" viewBox="0 0 180 68"><defs><path id="ovhfa" d="M168.03 316.422v13.014h-2.608v-13.014h-4.882V314.1h12.397v2.322z"/><path id="ovhfb" d="M190.385 329.434v-6.354h-8.197v6.354h-2.608V314.1h2.608v6.66h8.197v-6.66h2.608v15.336h-2.608z"/><path id="ovhfc" d="M204.085 316.422v4.142h7.558v2.322h-7.558v4.228h8.707v2.322H201.48V314.1h11.05v2.322z"/><path id="ovhfd" d="M164.985 346.688h3.448c2.386 0 3.736-1.007 3.736-3.088 0-2.016-1.347-2.978-3.736-2.978h-3.448zm3.56-8.388c3.89 0 6.12 1.906 6.12 5.236 0 3.462-2.23 5.477-6.12 5.477h-3.557v4.623h-2.608V338.3h6.164z"/><path id="ovhfe" d="M181.66 353.636V338.3h2.608v15.336z"/><path id="ovhff" d="M202.064 351.293v2.343h-9.304V338.3h2.608v12.993z"/><path id="ovhfg" d="M221.842 346.104v5.653c-1.57 1.182-3.89 1.994-6.01 1.994-4.573 0-8.132-3.395-8.132-7.778 0-4.384 3.603-7.733 8.287-7.733 2.21 0 4.419.833 5.945 2.147l-1.48 1.906c-1.193-1.096-2.85-1.752-4.462-1.752-3.161 0-5.636 2.386-5.636 5.432 0 3.066 2.497 5.456 5.657 5.456 1.15 0 2.454-.395 3.557-1.051v-4.274z"/><path id="ovhfh" d="M236.226 346.711c2.391 0 3.767-1.011 3.767-3.098 0-2.023-1.373-2.988-3.767-2.988h-3.678v6.089h3.678zm.697 2.28c-.22.022-.463.022-.707.022h-3.668v4.623h-2.608V338.3h6.276c3.955 0 6.232 1.906 6.232 5.236 0 2.454-1.15 4.185-3.204 4.972l3.47 5.126h-2.96z"/><path id="ovhfi" d="M250.34 353.636V338.3h2.608v15.336z"/><path id="ovhfj" d="M275.382 353.636l-.022-11.458-4.882 9.86h-1.702l-4.883-9.86v11.458h-2.453V338.3h3.093l5.105 10.187 5.082-10.187h3.072v15.336z"/><path id="ovhfk" d="M113.707 366.046s4.373.03 5.27-11.081c.897-11.12-3.687-48.882-10.537-51.132 0 0 5.687-3.403 11.136 1.285 4.62 3.972 6.398 29.777 7.368 49.422.47 9.477-2.448 13.068-5.4 12.934-3.654-.167-7.837-1.428-7.837-1.428z"/><path id="ovhfl" d="M130.52 304.829s21.54.67 2.648 33.895c-1.355 2.384-3.402 3.895-1.518 5.889 1.884 1.994 6.154 3.309 7.913 1.938 1.76-1.37 9.946-12.447 11.8-28.321 1.982-16.99-13.05-23.354-20.843-13.401z"/><path id="ovhfm" d="M104.275 304.626c-4.717 3.476-7.564 10.225-5.398 11.719 1.407.97 6.04 4.034 7.631 1.333 1.456-2.475 2.866-12.151 12.085-13.326 0 0-6.638-5.38-14.318.274z"/><path id="ovhfn" d="M145.594 302.054h.003-.003z"/><path id="ovhfo" d="M145.587 302.063c-.171-.118-.347-.228-.52-.338-.06-.035-.117-.073-.177-.108a14.38 14.38 0 0 0-.445-.25c-.027-.013-.051-.03-.078-.043l-.147-.072a10.388 10.388 0 0 0-.81-.366l-.095-.038a10.76 10.76 0 0 0-.827-.287c-.084-.024-.165-.051-.25-.073a5.95 5.95 0 0 0-.314-.078c-.065-.016-.13-.035-.195-.048-.092-.022-.187-.038-.28-.057a10.205 10.205 0 0 0-1.03-.145h-.002c-.057-.005-.114-.013-.17-.019-.03-.002-.063-.002-.093-.002-.122-.006-.244-.01-.366-.014a16.543 16.543 0 0 0-.368-.005 6.67 6.67 0 0 0-.402.013h-.04c-.136.008-.269.02-.404.033-.117.01-.233.021-.347.035h-.011c-.02.002-.038.002-.057.005-.247.032-.496.075-.743.126-.122.025-.244.06-.366.089a9.775 9.775 0 0 0-.46.124c-.041.01-.08.024-.12.037-.087.027-.176.054-.263.084-.152.05-.303.107-.455.166l-.125.049-.114.045c-.04.016-.078.03-.12.049-.246.107-.492.22-.734.346a.66.66 0 0 1-.065.027c-.26.121-.545.296-.84.498-.16.107-.317.212-.488.34a13.184 13.184 0 0 0-2.556 2.42l-.006.005c-7.365 8.023-18.84 28.33-21.448 46.023-3.142 21.305 13.446 16.696 13.446 16.696s-4.744-1.223-2.389-13.208c1.744-8.864 11.09-32.231 19.117-43.982.174-.253.347-.503.518-.745.006-.008.014-.016.02-.026.164-.232.327-.46.492-.68.014-.02.028-.035.041-.054.157-.213.315-.42.47-.621.015-.022.034-.043.05-.067.152-.196.302-.387.453-.573.022-.024.041-.05.063-.075.146-.18.292-.355.436-.524l.068-.08c.14-.165.282-.326.423-.48l.076-.083c.135-.15.273-.292.409-.432a13.487 13.487 0 0 1 .48-.473 14.71 14.71 0 0 1 .469-.427c.027-.025.057-.049.084-.073.127-.108.252-.21.377-.31l.084-.066c.124-.097.25-.186.371-.27l.081-.056c.125-.083.247-.158.366-.228l.076-.046c.125-.07.244-.132.366-.19l.065-.033a4.59 4.59 0 0 1 .369-.148l.051-.019c.128-.043.253-.078.377-.104l.03-.008c.133-.027.266-.046.396-.057-.45-.417-.92-.79-1.404-1.129z"/></defs><g><g transform="translate(-98 -300)"><g><g><g><use fill="#22223d" xlink:href="#ovhfa"/></g><g><use fill="#22223d" xlink:href="#ovhfb"/></g><g><use fill="#22223d" xlink:href="#ovhfc"/></g><g><use fill="#22223d" xlink:href="#ovhfd"/></g><g><use fill="#22223d" xlink:href="#ovhfe"/></g><g><use fill="#22223d" xlink:href="#ovhff"/></g><g><use fill="#22223d" xlink:href="#ovhfg"/></g><g><use fill="#22223d" xlink:href="#ovhfh"/></g><g><use fill="#22223d" xlink:href="#ovhfi"/></g><g><use fill="#22223d" xlink:href="#ovhfj"/></g></g><g><g><use fill="#d25728" xlink:href="#ovhfk"/></g><g><use fill="#d25728" xlink:href="#ovhfl"/></g><g><use fill="#e37d26" xlink:href="#ovhfm"/></g><g><g><use fill="#e37d26" xlink:href="#ovhfn"/></g><g><use fill="#e37d26" xlink:href="#ovhfo"/></g></g></g></g></g></g></svg>